{"title":"Shoot Em Up-720p MP4 AAC BRRip 2007-CC","uid":7123199,"size":1977284858,"categoryP":"video","categoryS":"hd___movies","magnet":"?xt=urn:btih:674e5defd8e7d2c10196333a038ba193e38c6381&amp;dn=Shoot+Em+Up-720p+MP4+AAC+BRRip+2007-CC&amp;tr=udp%3A%2F%2Ftracker.openbittorrent.com%3A80&amp;tr=udp%3A%2F%2Fopen.demonii.com%3A1337&amp;tr=udp%3A%2F%2Ftracker.coppersurfer.tk%3A6969&amp;tr=udp%3A%2F%2Fexodus.desync.com%3A6969","seeders":0,"leechers":2,"uploader":"Caveman44","files":-1,"time":1332436770,"description":"Source: Shoot.Em.Up.2007.720p.BluRay.DTS.x264-ESiR \n\nSubs: Arabic, Brazilian, Bulgarian, Danish, Dutch, English, Estonian, Farsi-Persian, Finnish, French, Hebrew, Hungarian, Indonesian, Norwegian, Portuguese, Romanian, Slovenian, Spanish, Swedish and Vietnamese.\n\nSample and Screens included.\n\nGeneral\nComplete name                    : Shoot Em Up-720p MP4 AAC BRRip 2007-CC.mp4\nFormat                           : MPEG-4\nFormat profile                   : Base Media\nCodec ID                         : isom\nFile size                        : 1.82 GiB\nDuration                         : 1h 26mn\nOverall bit rate                 : 3 006 Kbps\nEncoded date                     : UTC 2012-03-20 09:28:53\n\nVideo\nID                               : 1\nFormat                           : AVC\nFormat/Info                      : Advanced Video Codec\nFormat profile                   : &lt;a class=&quot;__cf_email__&quot; href=&quot;/cdn-cgi/l/email-protection&quot; data-cfemail=&quot;733b1a141b333f405d42&quot;&gt;[email&amp;#160;protected]&lt;/a&gt;&lt;script cf-hash='f9e31' type=&quot;text/javascript&quot;&gt;\n/* &lt;![CDATA[ */!function(){try{var t=&quot;currentScript&quot;in document?document.currentScript:function(){for(var t=document.getElementsByTagName(&quot;script&quot;),e=t.length;e--;)if(t[e].getAttribute(&quot;cf-hash&quot;))return t[e]}();if(t&amp;&amp;t.previousSibling){var e,r,n,i,c=t.previousSibling,a=c.getAttribute(&quot;data-cfemail&quot;);if(a){for(e=&quot;&quot;,r=parseInt(a.substr(0,2),16),n=2;a.length-n;n+=2)i=parseInt(a.substr(n,2),16)^r,e+=String.fromCharCode(i);e=document.createTextNode(e),c.parentNode.replaceChild(e,c)}}}catch(u){}}();/* ]]&gt; */&lt;/script&gt;\nFormat settings, CABAC           : Yes\nFormat settings, ReFrames        : 5 frames\nCodec ID                         : avc1\nCodec ID/Info                    : Advanced Video Coding\nDuration                         : 1h 26mn\nBit rate mode                    : Variable\nBit rate                         : 2 618 Kbps\nNominal bit rate                 : 2 714 Kbps\nMaximum bit rate                 : 13.0 Mbps\nWidth                            : 1 280 pixels\nHeight                           : 544 pixels\nDisplay aspect ratio             : 2.35:1\nFrame rate mode                  : Variable\nFrame rate                       : 23.976 fps\nMinimum frame rate               : 19.048 fps\nMaximum frame rate               : 24.390 fps\nResolution                       : 24 bits\nColorimetry                      : 4:2:0\nScan type                        : Progressive\nBits/(Pixel*Frame)               : 0.157\nStream size                      : 1.58 GiB (87%)\nWriting library                  : x264 core 112\n\nAudio\nID                               : 2\nFormat                           : AAC\nFormat/Info                      : Advanced Audio Codec\nFormat version                   : Version 4\nFormat profile                   : LC\nFormat settings, SBR             : No\nCodec ID                         : 40\nDuration                         : 1h 26mn\nBit rate mode                    : Variable\nBit rate                         : 384 Kbps\nMaximum bit rate                 : 680 Kbps\nChannel(s)                       : 6 channels\nChannel positions                : Front: L C R, Rear: L R, LFE\nSampling rate                    : 48.0 KHz\nResolution                       : 16 bits\nStream size                      : 237 MiB (13%)\nLanguage                         : English","torrent":{"xt":"urn:btih:674e5defd8e7d2c10196333a038ba193e38c6381","amp;dn":"Shoot+Em+Up-720p+MP4+AAC+BRRip+2007-CC","amp;tr":["udp%3A%2F%2Ftracker.openbittorrent.com%3A80","udp%3A%2F%2Fopen.demonii.com%3A1337","udp%3A%2F%2Ftracker.coppersurfer.tk%3A6969","udp%3A%2F%2Fexodus.desync.com%3A6969"],"infoHash":"674e5defd8e7d2c10196333a038ba193e38c6381","infoHashBuffer":{"type":"Buffer","data":[103,78,93,239,216,231,210,193,1,150,51,58,3,139,161,147,227,140,99,129]},"announce":[],"urlList":[]}}